<?xml version="1.0" encoding="utf-8" standalone="no"?>
<!DOCTYPE svg PUBLIC "-//W3C//DTD SVG 1.1//EN"
  "http://www.w3.org/Graphics/SVG/1.1/DTD/svg11.dtd">
<svg xmlns:xlink="http://www.w3.org/1999/xlink" width="792pt" height="453.6pt" viewBox="0 0 792 453.6" xmlns="http://www.w3.org/2000/svg" version="1.1">
 <metadata>
  <rdf:RDF xmlns:dc="http://purl.org/dc/elements/1.1/" xmlns:cc="http://creativecommons.org/ns#" xmlns:rdf="http://www.w3.org/1999/02/22-rdf-syntax-ns#">
   <cc:Work>
    <dc:type rdf:resource="http://purl.org/dc/dcmitype/StillImage"/>
    <dc:date>2026-09-25T16:07:42.854400</dc:date>
    <dc:format>image/svg+xml</dc:format>
    <dc:creator>
     <cc:Agent>
      <dc:title>Matplotlib v3.11.2, https://matplotlib.org/</dc:title>
     </cc:Agent>
    </dc:creator>
   </cc:Work>
  </rdf:RDF>
 </metadata>
 <defs>
  <style type="text/css">*{stroke-linejoin: round; stroke-linecap: butt}</style>
 </defs>
 <g id="figure_1">
  <g id="patch_1">
   <path d="M 0 453.6 
L 792 453.6 
L 792 0 
L 0 0 
z
" style="fill: #ffffff"/>
  </g>
  <g id="axes_1">
   <g id="patch_2">
    <path d="M 95.04 340.2 
L 768.24 340.2 
L 768.24 49.896 
L 95.04 49.896 
z
" style="fill: #ffffff"/>
   </g>
   <g id="matplotlib.axis_1">
    <g id="xtick_1">
     <g id="line2d_1">
      <defs>
       <path id="mcbea8e1ea1" d="M 0 0 
L 0 3.5 
" style="stroke: #435363; stroke-width: 0.8"/>
      </defs>
      <g>
       <use xlink:href="#mcbea8e1ea1" x="131.699406" y="340.2" style="fill: #435363; stroke: #435363; stroke-width: 0.8"/>
      </g>
     </g>
     <g id="text_1">
      <!-- 2017 -->
      <g style="fill: #435363" transform="translate(121.005926 368.43524) rotate(-30) scale(0.11 -0.11)">
       <defs>
        <path id="DejaVuSans-15" d="M 1228 531 
L 3431 531 
L 3431 0 
L 469 0 
L 469 531 
Q 828 903 1448 1529 
Q 2069 2156 2228 2338 
Q 2531 2678 2651 2914 
Q 2772 3150 2772 3378 
Q 2772 3750 2511 3984 
Q 2250 4219 1831 4219 
Q 1534 4219 1204 4116 
Q 875 4013 500 3803 
L 500 4441 
Q 881 4594 1212 4672 
Q 1544 4750 1819 4750 
Q 2544 4750 2975 4387 
Q 3406 4025 3406 3419 
Q 3406 3131 3298 2873 
Q 3191 2616 2906 2266 
Q 2828 2175 2409 1742 
Q 1991 1309 1228 531 
z
" transform="scale(0.015625)"/>
        <path id="DejaVuSans-13" d="M 2034 4250 
Q 1547 4250 1301 3770 
Q 1056 3291 1056 2328 
Q 1056 1369 1301 889 
Q 1547 409 2034 409 
Q 2525 409 2770 889 
Q 3016 1369 3016 2328 
Q 3016 3291 2770 3770 
Q 2525 4250 2034 4250 
z
M 2034 4750 
Q 2819 4750 3233 4129 
Q 3647 3509 3647 2328 
Q 3647 1150 3233 529 
Q 2819 -91 2034 -91 
Q 1250 -91 836 529 
Q 422 1150 422 2328 
Q 422 3509 836 4129 
Q 1250 4750 2034 4750 
z
" transform="scale(0.015625)"/>
        <path id="DejaVuSans-14" d="M 794 531 
L 1825 531 
L 1825 4091 
L 703 3866 
L 703 4441 
L 1819 4666 
L 2450 4666 
L 2450 531 
L 3481 531 
L 3481 0 
L 794 0 
L 794 531 
z
" transform="scale(0.015625)"/>
        <path id="DejaVuSans-1a" d="M 525 4666 
L 3525 4666 
L 3525 4397 
L 1831 0 
L 1172 0 
L 2766 4134 
L 525 4134 
L 525 4666 
z
" transform="scale(0.015625)"/>
       </defs>
       <use xlink:href="#DejaVuSans-15"/>
       <use xlink:href="#DejaVuSans-13" transform="translate(63.625 0)"/>
       <use xlink:href="#DejaVuSans-14" transform="translate(127.25 0)"/>
       <use xlink:href="#DejaVuSans-1a" transform="translate(190.875 0)"/>
      </g>
     </g>
    </g>
    <g id="xtick_2">
     <g id="line2d_2">
      <g>
       <use xlink:href="#mcbea8e1ea1" x="198.352871" y="340.2" style="fill: #435363; stroke: #435363; stroke-width: 0.8"/>
      </g>
     </g>
     <g id="text_2">
      <!-- 2018 -->
      <g style="fill: #435363" transform="translate(187.659392 368.43524) rotate(-30) scale(0.11 -0.11)">
       <defs>
        <path id="DejaVuSans-1b" d="M 2034 2216 
Q 1584 2216 1326 1975 
Q 1069 1734 1069 1313 
Q 1069 891 1326 650 
Q 1584 409 2034 409 
Q 2484 409 2743 651 
Q 3003 894 3003 1313 
Q 3003 1734 2745 1975 
Q 2488 2216 2034 2216 
z
M 1403 2484 
Q 997 2584 770 2862 
Q 544 3141 544 3541 
Q 544 4100 942 4425 
Q 1341 4750 2034 4750 
Q 2731 4750 3128 4425 
Q 3525 4100 3525 3541 
Q 3525 3141 3298 2862 
Q 3072 2584 2669 2484 
Q 3125 2378 3379 2068 
Q 3634 1759 3634 1313 
Q 3634 634 3220 271 
Q 2806 -91 2034 -91 
Q 1263 -91 848 271 
Q 434 634 434 1313 
Q 434 1759 690 2068 
Q 947 2378 1403 2484 
z
M 1172 3481 
Q 1172 3119 1398 2916 
Q 1625 2713 2034 2713 
Q 2441 2713 2670 2916 
Q 2900 3119 2900 3481 
Q 2900 3844 2670 4047 
Q 2441 4250 2034 4250 
Q 1625 4250 1398 4047 
Q 1172 3844 1172 3481 
z
" transform="scale(0.015625)"/>
       </defs>
       <use xlink:href="#DejaVuSans-15"/>
       <use xlink:href="#DejaVuSans-13" transform="translate(63.625 0)"/>
       <use xlink:href="#DejaVuSans-14" transform="translate(127.25 0)"/>
       <use xlink:href="#DejaVuSans-1b" transform="translate(190.875 0)"/>
      </g>
     </g>
    </g>
    <g id="xtick_3">
     <g id="line2d_3">
      <g>
       <use xlink:href="#mcbea8e1ea1" x="265.006337" y="340.2" style="fill: #435363; stroke: #435363; stroke-width: 0.8"/>
      </g>
     </g>
     <g id="text_3">
      <!-- 2019 -->
      <g style="fill: #435363" transform="translate(254.312857 368.43524) rotate(-30) scale(0.11 -0.11)">
       <defs>
        <path id="DejaVuSans-1c" d="M 703 97 
L 703 672 
Q 941 559 1184 500 
Q 1428 441 1663 441 
Q 2288 441 2617 861 
Q 2947 1281 2994 2138 
Q 2813 1869 2534 1725 
Q 2256 1581 1919 1581 
Q 1219 1581 811 2004 
Q 403 2428 403 3163 
Q 403 3881 828 4315 
Q 1253 4750 1959 4750 
Q 2769 4750 3195 4129 
Q 3622 3509 3622 2328 
Q 3622 1225 3098 567 
Q 2575 -91 1691 -91 
Q 1453 -91 1209 -44 
Q 966 3 703 97 
z
M 1959 2075 
Q 2384 2075 2632 2365 
Q 2881 2656 2881 3163 
Q 2881 3666 2632 3958 
Q 2384 4250 1959 4250 
Q 1534 4250 1286 3958 
Q 1038 3666 1038 3163 
Q 1038 2656 1286 2365 
Q 1534 2075 1959 2075 
z
" transform="scale(0.015625)"/>
       </defs>
       <use xlink:href="#DejaVuSans-15"/>
       <use xlink:href="#DejaVuSans-13" transform="translate(63.625 0)"/>
       <use xlink:href="#DejaVuSans-14" transform="translate(127.25 0)"/>
       <use xlink:href="#DejaVuSans-1c" transform="translate(190.875 0)"/>
      </g>
     </g>
    </g>
    <g id="xtick_4">
     <g id="line2d_4">
      <g>
       <use xlink:href="#mcbea8e1ea1" x="331.659802" y="340.2" style="fill: #435363; stroke: #435363; stroke-width: 0.8"/>
      </g>
     </g>
     <g id="text_4">
      <!-- 2020 -->
      <g style="fill: #435363" transform="translate(320.966322 368.43524) rotate(-30) scale(0.11 -0.11)">
       <use xlink:href="#DejaVuSans-15"/>
       <use xlink:href="#DejaVuSans-13" transform="translate(63.625 0)"/>
       <use xlink:href="#DejaVuSans-15" transform="translate(127.25 0)"/>
       <use xlink:href="#DejaVuSans-13" transform="translate(190.875 0)"/>
      </g>
     </g>
    </g>
    <g id="xtick_5">
     <g id="line2d_5">
      <g>
       <use xlink:href="#mcbea8e1ea1" x="398.313267" y="340.2" style="fill: #435363; stroke: #435363; stroke-width: 0.8"/>
      </g>
     </g>
     <g id="text_5">
      <!-- 2021 -->
      <g style="fill: #435363" transform="translate(387.619788 368.43524) rotate(-30) scale(0.11 -0.11)">
       <use xlink:href="#DejaVuSans-15"/>
       <use xlink:href="#DejaVuSans-13" transform="translate(63.625 0)"/>
       <use xlink:href="#DejaVuSans-15" transform="translate(127.25 0)"/>
       <use xlink:href="#DejaVuSans-14" transform="translate(190.875 0)"/>
      </g>
     </g>
    </g>
    <g id="xtick_6">
     <g id="line2d_6">
      <g>
       <use xlink:href="#mcbea8e1ea1" x="464.966733" y="340.2" style="fill: #435363; stroke: #435363; stroke-width: 0.8"/>
      </g>
     </g>
     <g id="text_6">
      <!-- 2022 -->
      <g style="fill: #435363" transform="translate(454.273253 368.43524) rotate(-30) scale(0.11 -0.11)">
       <use xlink:href="#DejaVuSans-15"/>
       <use xlink:href="#DejaVuSans-13" transform="translate(63.625 0)"/>
       <use xlink:href="#DejaVuSans-15" transform="translate(127.25 0)"/>
       <use xlink:href="#DejaVuSans-15" transform="translate(190.875 0)"/>
      </g>
     </g>
    </g>
    <g id="xtick_7">
     <g id="line2d_7">
      <g>
       <use xlink:href="#mcbea8e1ea1" x="531.620198" y="340.2" style="fill: #435363; stroke: #435363; stroke-width: 0.8"/>
      </g>
     </g>
     <g id="text_7">
      <!-- 2023 -->
      <g style="fill: #435363" transform="translate(520.926718 368.43524) rotate(-30) scale(0.11 -0.11)">
       <defs>
        <path id="DejaVuSans-16" d="M 2597 2516 
Q 3050 2419 3304 2112 
Q 3559 1806 3559 1356 
Q 3559 666 3084 287 
Q 2609 -91 1734 -91 
Q 1441 -91 1130 -33 
Q 819 25 488 141 
L 488 750 
Q 750 597 1062 519 
Q 1375 441 1716 441 
Q 2309 441 2620 675 
Q 2931 909 2931 1356 
Q 2931 1769 2642 2001 
Q 2353 2234 1838 2234 
L 1294 2234 
L 1294 2753 
L 1863 2753 
Q 2328 2753 2575 2939 
Q 2822 3125 2822 3475 
Q 2822 3834 2567 4026 
Q 2313 4219 1838 4219 
Q 1578 4219 1281 4162 
Q 984 4106 628 3988 
L 628 4550 
Q 988 4650 1302 4700 
Q 1616 4750 1894 4750 
Q 2613 4750 3031 4423 
Q 3450 4097 3450 3541 
Q 3450 3153 3228 2886 
Q 3006 2619 2597 2516 
z
" transform="scale(0.015625)"/>
       </defs>
       <use xlink:href="#DejaVuSans-15"/>
       <use xlink:href="#DejaVuSans-13" transform="translate(63.625 0)"/>
       <use xlink:href="#DejaVuSans-15" transform="translate(127.25 0)"/>
       <use xlink:href="#DejaVuSans-16" transform="translate(190.875 0)"/>
      </g>
     </g>
    </g>
    <g id="xtick_8">
     <g id="line2d_8">
      <g>
       <use xlink:href="#mcbea8e1ea1" x="598.273663" y="340.2" style="fill: #435363; stroke: #435363; stroke-width: 0.8"/>
      </g>
     </g>
     <g id="text_8">
      <!-- 2024 -->
      <g style="fill: #435363" transform="translate(587.580184 368.43524) rotate(-30) scale(0.11 -0.11)">
       <defs>
        <path id="DejaVuSans-17" d="M 2419 4116 
L 825 1625 
L 2419 1625 
L 2419 4116 
z
M 2253 4666 
L 3047 4666 
L 3047 1625 
L 3713 1625 
L 3713 1100 
L 3047 1100 
L 3047 0 
L 2419 0 
L 2419 1100 
L 313 1100 
L 313 1709 
L 2253 4666 
z
" transform="scale(0.015625)"/>
       </defs>
       <use xlink:href="#DejaVuSans-15"/>
       <use xlink:href="#DejaVuSans-13" transform="translate(63.625 0)"/>
       <use xlink:href="#DejaVuSans-15" transform="translate(127.25 0)"/>
       <use xlink:href="#DejaVuSans-17" transform="translate(190.875 0)"/>
      </g>
     </g>
    </g>
    <g id="xtick_9">
     <g id="line2d_9">
      <g>
       <use xlink:href="#mcbea8e1ea1" x="664.927129" y="340.2" style="fill: #435363; stroke: #435363; stroke-width: 0.8"/>
      </g>
     </g>
     <g id="text_9">
      <!-- 2025 -->
      <g style="fill: #435363" transform="translate(654.233649 368.43524) rotate(-30) scale(0.11 -0.11)">
       <defs>
        <path id="DejaVuSans-18" d="M 691 4666 
L 3169 4666 
L 3169 4134 
L 1269 4134 
L 1269 2991 
Q 1406 3038 1543 3061 
Q 1681 3084 1819 3084 
Q 2600 3084 3056 2656 
Q 3513 2228 3513 1497 
Q 3513 744 3044 326 
Q 2575 -91 1722 -91 
Q 1428 -91 1123 -41 
Q 819 9 494 109 
L 494 744 
Q 775 591 1075 516 
Q 1375 441 1709 441 
Q 2250 441 2565 725 
Q 2881 1009 2881 1497 
Q 2881 1984 2565 2268 
Q 2250 2553 1709 2553 
Q 1456 2553 1204 2497 
Q 953 2441 691 2322 
L 691 4666 
z
" transform="scale(0.015625)"/>
       </defs>
       <use xlink:href="#DejaVuSans-15"/>
       <use xlink:href="#DejaVuSans-13" transform="translate(63.625 0)"/>
       <use xlink:href="#DejaVuSans-15" transform="translate(127.25 0)"/>
       <use xlink:href="#DejaVuSans-18" transform="translate(190.875 0)"/>
      </g>
     </g>
    </g>
    <g id="xtick_10">
     <g id="line2d_10">
      <g>
       <use xlink:href="#mcbea8e1ea1" x="731.580594" y="340.2" style="fill: #435363; stroke: #435363; stroke-width: 0.8"/>
      </g>
     </g>
     <g id="text_10">
      <!-- 2026* -->
      <g style="fill: #435363" transform="translate(718.505545 371.18524) rotate(-30) scale(0.11 -0.11)">
       <defs>
        <path id="DejaVuSans-19" d="M 2113 2584 
Q 1688 2584 1439 2293 
Q 1191 2003 1191 1497 
Q 1191 994 1439 701 
Q 1688 409 2113 409 
Q 2538 409 2786 701 
Q 3034 994 3034 1497 
Q 3034 2003 2786 2293 
Q 2538 2584 2113 2584 
z
M 3366 4563 
L 3366 3988 
Q 3128 4100 2886 4159 
Q 2644 4219 2406 4219 
Q 1781 4219 1451 3797 
Q 1122 3375 1075 2522 
Q 1259 2794 1537 2939 
Q 1816 3084 2150 3084 
Q 2853 3084 3261 2657 
Q 3669 2231 3669 1497 
Q 3669 778 3244 343 
Q 2819 -91 2113 -91 
Q 1303 -91 875 529 
Q 447 1150 447 2328 
Q 447 3434 972 4092 
Q 1497 4750 2381 4750 
Q 2619 4750 2861 4703 
Q 3103 4656 3366 4563 
z
" transform="scale(0.015625)"/>
        <path id="DejaVuSans-d" d="M 3009 3897 
L 1888 3291 
L 3009 2681 
L 2828 2375 
L 1778 3009 
L 1778 1831 
L 1422 1831 
L 1422 3009 
L 372 2375 
L 191 2681 
L 1313 3291 
L 191 3897 
L 372 4206 
L 1422 3572 
L 1422 4750 
L 1778 4750 
L 1778 3572 
L 2828 4206 
L 3009 3897 
z
" transform="scale(0.015625)"/>
       </defs>
       <use xlink:href="#DejaVuSans-15"/>
       <use xlink:href="#DejaVuSans-13" transform="translate(63.625 0)"/>
       <use xlink:href="#DejaVuSans-15" transform="translate(127.25 0)"/>
       <use xlink:href="#DejaVuSans-19" transform="translate(190.875 0)"/>
       <use xlink:href="#DejaVuSans-d" transform="translate(254.5 0)"/>
      </g>
     </g>
    </g>
    <g id="text_11">
     <!-- Merge year -->
     <g style="fill: #213547" transform="translate(400.450703 385.831201) scale(0.11 -0.11)">
      <defs>
       <path id="DejaVuSans-30" d="M 628 4666 
L 1569 4666 
L 2759 1491 
L 3956 4666 
L 4897 4666 
L 4897 0 
L 4281 0 
L 4281 4097 
L 3078 897 
L 2444 897 
L 1241 4097 
L 1241 0 
L 628 0 
L 628 4666 
z
" transform="scale(0.015625)"/>
       <path id="DejaVuSans-48" d="M 3597 1894 
L 3597 1613 
L 953 1613 
Q 991 1019 1311 708 
Q 1631 397 2203 397 
Q 2534 397 2845 478 
Q 3156 559 3463 722 
L 3463 178 
Q 3153 47 2828 -22 
Q 2503 -91 2169 -91 
Q 1331 -91 842 396 
Q 353 884 353 1716 
Q 353 2575 817 3079 
Q 1281 3584 2069 3584 
Q 2775 3584 3186 3129 
Q 3597 2675 3597 1894 
z
M 3022 2063 
Q 3016 2534 2758 2815 
Q 2500 3097 2075 3097 
Q 1594 3097 1305 2825 
Q 1016 2553 972 2059 
L 3022 2063 
z
" transform="scale(0.015625)"/>
       <path id="DejaVuSans-55" d="M 2631 2963 
Q 2534 3019 2420 3045 
Q 2306 3072 2169 3072 
Q 1681 3072 1420 2755 
Q 1159 2438 1159 1844 
L 1159 0 
L 581 0 
L 581 3500 
L 1159 3500 
L 1159 2956 
Q 1341 3275 1631 3429 
Q 1922 3584 2338 3584 
Q 2397 3584 2469 3576 
Q 2541 3569 2628 3553 
L 2631 2963 
z
" transform="scale(0.015625)"/>
       <path id="DejaVuSans-4a" d="M 2906 1791 
Q 2906 2416 2648 2759 
Q 2391 3103 1925 3103 
Q 1463 3103 1205 2759 
Q 947 2416 947 1791 
Q 947 1169 1205 825 
Q 1463 481 1925 481 
Q 2391 481 2648 825 
Q 2906 1169 2906 1791 
z
M 3481 434 
Q 3481 -459 3084 -895 
Q 2688 -1331 1869 -1331 
Q 1566 -1331 1297 -1286 
Q 1028 -1241 775 -1147 
L 775 -588 
Q 1028 -725 1275 -790 
Q 1522 -856 1778 -856 
Q 2344 -856 2625 -561 
Q 2906 -266 2906 331 
L 2906 616 
Q 2728 306 2450 153 
Q 2172 0 1784 0 
Q 1141 0 747 490 
Q 353 981 353 1791 
Q 353 2603 747 3093 
Q 1141 3584 1784 3584 
Q 2172 3584 2450 3431 
Q 2728 3278 2906 2969 
L 2906 3500 
L 3481 3500 
L 3481 434 
z
" transform="scale(0.015625)"/>
       <path id="DejaVuSans-3" transform="scale(0.015625)"/>
       <path id="DejaVuSans-5c" d="M 2059 -325 
Q 1816 -950 1584 -1140 
Q 1353 -1331 966 -1331 
L 506 -1331 
L 506 -850 
L 844 -850 
Q 1081 -850 1212 -737 
Q 1344 -625 1503 -206 
L 1606 56 
L 191 3500 
L 800 3500 
L 1894 763 
L 2988 3500 
L 3597 3500 
L 2059 -325 
z
" transform="scale(0.015625)"/>
       <path id="DejaVuSans-44" d="M 2194 1759 
Q 1497 1759 1228 1600 
Q 959 1441 959 1056 
Q 959 750 1161 570 
Q 1363 391 1709 391 
Q 2188 391 2477 730 
Q 2766 1069 2766 1631 
L 2766 1759 
L 2194 1759 
z
M 3341 1997 
L 3341 0 
L 2766 0 
L 2766 531 
Q 2569 213 2275 61 
Q 1981 -91 1556 -91 
Q 1019 -91 701 211 
Q 384 513 384 1019 
Q 384 1609 779 1909 
Q 1175 2209 1959 2209 
L 2766 2209 
L 2766 2266 
Q 2766 2663 2505 2880 
Q 2244 3097 1772 3097 
Q 1472 3097 1187 3025 
Q 903 2953 641 2809 
L 641 3341 
Q 956 3463 1253 3523 
Q 1550 3584 1831 3584 
Q 2591 3584 2966 3190 
Q 3341 2797 3341 1997 
z
" transform="scale(0.015625)"/>
      </defs>
      <use xlink:href="#DejaVuSans-30"/>
      <use xlink:href="#DejaVuSans-48" transform="translate(86.28125 0)"/>
      <use xlink:href="#DejaVuSans-55" transform="translate(147.8125 0)"/>
      <use xlink:href="#DejaVuSans-4a" transform="translate(187.171875 0)"/>
      <use xlink:href="#DejaVuSans-48" transform="translate(250.65625 0)"/>
      <use xlink:href="#DejaVuSans-3" transform="translate(312.1875 0)"/>
      <use xlink:href="#DejaVuSans-5c" transform="translate(343.96875 0)"/>
      <use xlink:href="#DejaVuSans-48" transform="translate(403.15625 0)"/>
      <use xlink:href="#DejaVuSans-44" transform="translate(464.6875 0)"/>
      <use xlink:href="#DejaVuSans-55" transform="translate(525.96875 0)"/>
     </g>
    </g>
   </g>
   <g id="matplotlib.axis_2">
    <g id="ytick_1">
     <g id="line2d_11">
      <path d="M 95.04 340.2 
L 768.24 340.2 
" clip-path="url(#pfc8a4fcf99)" style="fill: none; stroke: #e6ebef; stroke-width: 0.8; stroke-linecap: square"/>
     </g>
     <g id="line2d_12">
      <defs>
       <path id="m95bfd02349" d="M 0 0 
L -3.5 0 
" style="stroke: #435363; stroke-width: 0.8"/>
      </defs>
      <g>
       <use xlink:href="#m95bfd02349" x="95.04" y="340.2" style="fill: #435363; stroke: #435363; stroke-width: 0.8"/>
      </g>
     </g>
     <g id="text_12">
      <!-- 0 -->
      <g style="fill: #435363" transform="translate(81.04125 344.378711) scale(0.11 -0.11)">
       <use xlink:href="#DejaVuSans-13"/>
      </g>
     </g>
    </g>
    <g id="ytick_2">
     <g id="line2d_13">
      <path d="M 95.04 309.96 
L 768.24 309.96 
" clip-path="url(#pfc8a4fcf99)" style="fill: none; stroke: #e6ebef; stroke-width: 0.8; stroke-linecap: square"/>
     </g>
     <g id="line2d_14">
      <g>
       <use xlink:href="#m95bfd02349" x="95.04" y="309.96" style="fill: #435363; stroke: #435363; stroke-width: 0.8"/>
      </g>
     </g>
     <g id="text_13">
      <!-- 25 -->
      <g style="fill: #435363" transform="translate(74.0425 314.138711) scale(0.11 -0.11)">
       <use xlink:href="#DejaVuSans-15"/>
       <use xlink:href="#DejaVuSans-18" transform="translate(63.625 0)"/>
      </g>
     </g>
    </g>
    <g id="ytick_3">
     <g id="line2d_15">
      <path d="M 95.04 279.72 
L 768.24 279.72 
" clip-path="url(#pfc8a4fcf99)" style="fill: none; stroke: #e6ebef; stroke-width: 0.8; stroke-linecap: square"/>
     </g>
     <g id="line2d_16">
      <g>
       <use xlink:href="#m95bfd02349" x="95.04" y="279.72" style="fill: #435363; stroke: #435363; stroke-width: 0.8"/>
      </g>
     </g>
     <g id="text_14">
      <!-- 50 -->
      <g style="fill: #435363" transform="translate(74.0425 283.898711) scale(0.11 -0.11)">
       <use xlink:href="#DejaVuSans-18"/>
       <use xlink:href="#DejaVuSans-13" transform="translate(63.625 0)"/>
      </g>
     </g>
    </g>
    <g id="ytick_4">
     <g id="line2d_17">
      <path d="M 95.04 249.48 
L 768.24 249.48 
" clip-path="url(#pfc8a4fcf99)" style="fill: none; stroke: #e6ebef; stroke-width: 0.8; stroke-linecap: square"/>
     </g>
     <g id="line2d_18">
      <g>
       <use xlink:href="#m95bfd02349" x="95.04" y="249.48" style="fill: #435363; stroke: #435363; stroke-width: 0.8"/>
      </g>
     </g>
     <g id="text_15">
      <!-- 75 -->
      <g style="fill: #435363" transform="translate(74.0425 253.658711) scale(0.11 -0.11)">
       <use xlink:href="#DejaVuSans-1a"/>
       <use xlink:href="#DejaVuSans-18" transform="translate(63.625 0)"/>
      </g>
     </g>
    </g>
    <g id="ytick_5">
     <g id="line2d_19">
      <path d="M 95.04 219.24 
L 768.24 219.24 
" clip-path="url(#pfc8a4fcf99)" style="fill: none; stroke: #e6ebef; stroke-width: 0.8; stroke-linecap: square"/>
     </g>
     <g id="line2d_20">
      <g>
       <use xlink:href="#m95bfd02349" x="95.04" y="219.24" style="fill: #435363; stroke: #435363; stroke-width: 0.8"/>
      </g>
     </g>
     <g id="text_16">
      <!-- 100 -->
      <g style="fill: #435363" transform="translate(67.04375 223.418711) scale(0.11 -0.11)">
       <use xlink:href="#DejaVuSans-14"/>
       <use xlink:href="#DejaVuSans-13" transform="translate(63.625 0)"/>
       <use xlink:href="#DejaVuSans-13" transform="translate(127.25 0)"/>
      </g>
     </g>
    </g>
    <g id="ytick_6">
     <g id="line2d_21">
      <path d="M 95.04 189 
L 768.24 189 
" clip-path="url(#pfc8a4fcf99)" style="fill: none; stroke: #e6ebef; stroke-width: 0.8; stroke-linecap: square"/>
     </g>
     <g id="line2d_22">
      <g>
       <use xlink:href="#m95bfd02349" x="95.04" y="189" style="fill: #435363; stroke: #435363; stroke-width: 0.8"/>
      </g>
     </g>
     <g id="text_17">
      <!-- 125 -->
      <g style="fill: #435363" transform="translate(67.04375 193.178711) scale(0.11 -0.11)">
       <use xlink:href="#DejaVuSans-14"/>
       <use xlink:href="#DejaVuSans-15" transform="translate(63.625 0)"/>
       <use xlink:href="#DejaVuSans-18" transform="translate(127.25 0)"/>
      </g>
     </g>
    </g>
    <g id="ytick_7">
     <g id="line2d_23">
      <path d="M 95.04 158.76 
L 768.24 158.76 
" clip-path="url(#pfc8a4fcf99)" style="fill: none; stroke: #e6ebef; stroke-width: 0.8; stroke-linecap: square"/>
     </g>
     <g id="line2d_24">
      <g>
       <use xlink:href="#m95bfd02349" x="95.04" y="158.76" style="fill: #435363; stroke: #435363; stroke-width: 0.8"/>
      </g>
     </g>
     <g id="text_18">
      <!-- 150 -->
      <g style="fill: #435363" transform="translate(67.04375 162.938711) scale(0.11 -0.11)">
       <use xlink:href="#DejaVuSans-14"/>
       <use xlink:href="#DejaVuSans-18" transform="translate(63.625 0)"/>
       <use xlink:href="#DejaVuSans-13" transform="translate(127.25 0)"/>
      </g>
     </g>
    </g>
    <g id="ytick_8">
     <g id="line2d_25">
      <path d="M 95.04 128.52 
L 768.24 128.52 
" clip-path="url(#pfc8a4fcf99)" style="fill: none; stroke: #e6ebef; stroke-width: 0.8; stroke-linecap: square"/>
     </g>
     <g id="line2d_26">
      <g>
       <use xlink:href="#m95bfd02349" x="95.04" y="128.52" style="fill: #435363; stroke: #435363; stroke-width: 0.8"/>
      </g>
     </g>
     <g id="text_19">
      <!-- 175 -->
      <g style="fill: #435363" transform="translate(67.04375 132.698711) scale(0.11 -0.11)">
       <use xlink:href="#DejaVuSans-14"/>
       <use xlink:href="#DejaVuSans-1a" transform="translate(63.625 0)"/>
       <use xlink:href="#DejaVuSans-18" transform="translate(127.25 0)"/>
      </g>
     </g>
    </g>
    <g id="ytick_9">
     <g id="line2d_27">
      <path d="M 95.04 98.28 
L 768.24 98.28 
" clip-path="url(#pfc8a4fcf99)" style="fill: none; stroke: #e6ebef; stroke-width: 0.8; stroke-linecap: square"/>
     </g>
     <g id="line2d_28">
      <g>
       <use xlink:href="#m95bfd02349" x="95.04" y="98.28" style="fill: #435363; stroke: #435363; stroke-width: 0.8"/>
      </g>
     </g>
     <g id="text_20">
      <!-- 200 -->
      <g style="fill: #435363" transform="translate(67.04375 102.458711) scale(0.11 -0.11)">
       <use xlink:href="#DejaVuSans-15"/>
       <use xlink:href="#DejaVuSans-13" transform="translate(63.625 0)"/>
       <use xlink:href="#DejaVuSans-13" transform="translate(127.25 0)"/>
      </g>
     </g>
    </g>
    <g id="ytick_10">
     <g id="line2d_29">
      <path d="M 95.04 68.04 
L 768.24 68.04 
" clip-path="url(#pfc8a4fcf99)" style="fill: none; stroke: #e6ebef; stroke-width: 0.8; stroke-linecap: square"/>
     </g>
     <g id="line2d_30">
      <g>
       <use xlink:href="#m95bfd02349" x="95.04" y="68.04" style="fill: #435363; stroke: #435363; stroke-width: 0.8"/>
      </g>
     </g>
     <g id="text_21">
      <!-- 225 -->
      <g style="fill: #435363" transform="translate(67.04375 72.218711) scale(0.11 -0.11)">
       <use xlink:href="#DejaVuSans-15"/>
       <use xlink:href="#DejaVuSans-15" transform="translate(63.625 0)"/>
       <use xlink:href="#DejaVuSans-18" transform="translate(127.25 0)"/>
      </g>
     </g>
    </g>
    <g id="text_22">
     <!-- Sampled PRs (count) -->
     <g style="fill: #213547" transform="translate(60.401172 252.470578) rotate(-90) scale(0.11 -0.11)">
      <defs>
       <path id="DejaVuSans-36" d="M 3425 4513 
L 3425 3897 
Q 3066 4069 2747 4153 
Q 2428 4238 2131 4238 
Q 1616 4238 1336 4038 
Q 1056 3838 1056 3469 
Q 1056 3159 1242 3001 
Q 1428 2844 1947 2747 
L 2328 2669 
Q 3034 2534 3370 2195 
Q 3706 1856 3706 1288 
Q 3706 609 3251 259 
Q 2797 -91 1919 -91 
Q 1588 -91 1214 -16 
Q 841 59 441 206 
L 441 856 
Q 825 641 1194 531 
Q 1563 422 1919 422 
Q 2459 422 2753 634 
Q 3047 847 3047 1241 
Q 3047 1584 2836 1778 
Q 2625 1972 2144 2069 
L 1759 2144 
Q 1053 2284 737 2584 
Q 422 2884 422 3419 
Q 422 4038 858 4394 
Q 1294 4750 2059 4750 
Q 2388 4750 2728 4690 
Q 3069 4631 3425 4513 
z
" transform="scale(0.015625)"/>
       <path id="DejaVuSans-50" d="M 3328 2828 
Q 3544 3216 3844 3400 
Q 4144 3584 4550 3584 
Q 5097 3584 5394 3201 
Q 5691 2819 5691 2113 
L 5691 0 
L 5113 0 
L 5113 2094 
Q 5113 2597 4934 2840 
Q 4756 3084 4391 3084 
Q 3944 3084 3684 2787 
Q 3425 2491 3425 1978 
L 3425 0 
L 2847 0 
L 2847 2094 
Q 2847 2600 2669 2842 
Q 2491 3084 2119 3084 
Q 1678 3084 1418 2786 
Q 1159 2488 1159 1978 
L 1159 0 
L 581 0 
L 581 3500 
L 1159 3500 
L 1159 2956 
Q 1356 3278 1631 3431 
Q 1906 3584 2284 3584 
Q 2666 3584 2933 3390 
Q 3200 3197 3328 2828 
z
" transform="scale(0.015625)"/>
       <path id="DejaVuSans-53" d="M 1159 525 
L 1159 -1331 
L 581 -1331 
L 581 3500 
L 1159 3500 
L 1159 2969 
Q 1341 3281 1617 3432 
Q 1894 3584 2278 3584 
Q 2916 3584 3314 3078 
Q 3713 2572 3713 1747 
Q 3713 922 3314 415 
Q 2916 -91 2278 -91 
Q 1894 -91 1617 61 
Q 1341 213 1159 525 
z
M 3116 1747 
Q 3116 2381 2855 2742 
Q 2594 3103 2138 3103 
Q 1681 3103 1420 2742 
Q 1159 2381 1159 1747 
Q 1159 1113 1420 752 
Q 1681 391 2138 391 
Q 2594 391 2855 752 
Q 3116 1113 3116 1747 
z
" transform="scale(0.015625)"/>
       <path id="DejaVuSans-4f" d="M 603 4863 
L 1178 4863 
L 1178 0 
L 603 0 
L 603 4863 
z
" transform="scale(0.015625)"/>
       <path id="DejaVuSans-47" d="M 2906 2969 
L 2906 4863 
L 3481 4863 
L 3481 0 
L 2906 0 
L 2906 525 
Q 2725 213 2448 61 
Q 2172 -91 1784 -91 
Q 1150 -91 751 415 
Q 353 922 353 1747 
Q 353 2572 751 3078 
Q 1150 3584 1784 3584 
Q 2172 3584 2448 3432 
Q 2725 3281 2906 2969 
z
M 947 1747 
Q 947 1113 1208 752 
Q 1469 391 1925 391 
Q 2381 391 2643 752 
Q 2906 1113 2906 1747 
Q 2906 2381 2643 2742 
Q 2381 3103 1925 3103 
Q 1469 3103 1208 2742 
Q 947 2381 947 1747 
z
" transform="scale(0.015625)"/>
       <path id="DejaVuSans-33" d="M 1259 4147 
L 1259 2394 
L 2053 2394 
Q 2494 2394 2734 2622 
Q 2975 2850 2975 3272 
Q 2975 3691 2734 3919 
Q 2494 4147 2053 4147 
L 1259 4147 
z
M 628 4666 
L 2053 4666 
Q 2838 4666 3239 4311 
Q 3641 3956 3641 3272 
Q 3641 2581 3239 2228 
Q 2838 1875 2053 1875 
L 1259 1875 
L 1259 0 
L 628 0 
L 628 4666 
z
" transform="scale(0.015625)"/>
       <path id="DejaVuSans-35" d="M 2841 2188 
Q 3044 2119 3236 1894 
Q 3428 1669 3622 1275 
L 4263 0 
L 3584 0 
L 2988 1197 
Q 2756 1666 2539 1819 
Q 2322 1972 1947 1972 
L 1259 1972 
L 1259 0 
L 628 0 
L 628 4666 
L 2053 4666 
Q 2853 4666 3247 4331 
Q 3641 3997 3641 3322 
Q 3641 2881 3436 2590 
Q 3231 2300 2841 2188 
z
M 1259 4147 
L 1259 2491 
L 2053 2491 
Q 2509 2491 2742 2702 
Q 2975 2913 2975 3322 
Q 2975 3731 2742 3939 
Q 2509 4147 2053 4147 
L 1259 4147 
z
" transform="scale(0.015625)"/>
       <path id="DejaVuSans-56" d="M 2834 3397 
L 2834 2853 
Q 2591 2978 2328 3040 
Q 2066 3103 1784 3103 
Q 1356 3103 1142 2972 
Q 928 2841 928 2578 
Q 928 2378 1081 2264 
Q 1234 2150 1697 2047 
L 1894 2003 
Q 2506 1872 2764 1633 
Q 3022 1394 3022 966 
Q 3022 478 2636 193 
Q 2250 -91 1575 -91 
Q 1294 -91 989 -36 
Q 684 19 347 128 
L 347 722 
Q 666 556 975 473 
Q 1284 391 1588 391 
Q 1994 391 2212 530 
Q 2431 669 2431 922 
Q 2431 1156 2273 1281 
Q 2116 1406 1581 1522 
L 1381 1569 
Q 847 1681 609 1914 
Q 372 2147 372 2553 
Q 372 3047 722 3315 
Q 1072 3584 1716 3584 
Q 2034 3584 2315 3537 
Q 2597 3491 2834 3397 
z
" transform="scale(0.015625)"/>
       <path id="DejaVuSans-b" d="M 1984 4856 
Q 1566 4138 1362 3434 
Q 1159 2731 1159 2009 
Q 1159 1288 1364 580 
Q 1569 -128 1984 -844 
L 1484 -844 
Q 1016 -109 783 600 
Q 550 1309 550 2009 
Q 550 2706 781 3412 
Q 1013 4119 1484 4856 
L 1984 4856 
z
" transform="scale(0.015625)"/>
       <path id="DejaVuSans-46" d="M 3122 3366 
L 3122 2828 
Q 2878 2963 2633 3030 
Q 2388 3097 2138 3097 
Q 1578 3097 1268 2742 
Q 959 2388 959 1747 
Q 959 1106 1268 751 
Q 1578 397 2138 397 
Q 2388 397 2633 464 
Q 2878 531 3122 666 
L 3122 134 
Q 2881 22 2623 -34 
Q 2366 -91 2075 -91 
Q 1284 -91 818 406 
Q 353 903 353 1747 
Q 353 2603 823 3093 
Q 1294 3584 2113 3584 
Q 2378 3584 2631 3529 
Q 2884 3475 3122 3366 
z
" transform="scale(0.015625)"/>
       <path id="DejaVuSans-52" d="M 1959 3097 
Q 1497 3097 1228 2736 
Q 959 2375 959 1747 
Q 959 1119 1226 758 
Q 1494 397 1959 397 
Q 2419 397 2687 759 
Q 2956 1122 2956 1747 
Q 2956 2369 2687 2733 
Q 2419 3097 1959 3097 
z
M 1959 3584 
Q 2709 3584 3137 3096 
Q 3566 2609 3566 1747 
Q 3566 888 3137 398 
Q 2709 -91 1959 -91 
Q 1206 -91 779 398 
Q 353 888 353 1747 
Q 353 2609 779 3096 
Q 1206 3584 1959 3584 
z
" transform="scale(0.015625)"/>
       <path id="DejaVuSans-58" d="M 544 1381 
L 544 3500 
L 1119 3500 
L 1119 1403 
Q 1119 906 1312 657 
Q 1506 409 1894 409 
Q 2359 409 2629 706 
Q 2900 1003 2900 1516 
L 2900 3500 
L 3475 3500 
L 3475 0 
L 2900 0 
L 2900 538 
Q 2691 219 2414 64 
Q 2138 -91 1772 -91 
Q 1169 -91 856 284 
Q 544 659 544 1381 
z
M 1991 3584 
L 1991 3584 
z
" transform="scale(0.015625)"/>
       <path id="DejaVuSans-51" d="M 3513 2113 
L 3513 0 
L 2938 0 
L 2938 2094 
Q 2938 2591 2744 2837 
Q 2550 3084 2163 3084 
Q 1697 3084 1428 2787 
Q 1159 2491 1159 1978 
L 1159 0 
L 581 0 
L 581 3500 
L 1159 3500 
L 1159 2956 
Q 1366 3272 1645 3428 
Q 1925 3584 2291 3584 
Q 2894 3584 3203 3211 
Q 3513 2838 3513 2113 
z
" transform="scale(0.015625)"/>
       <path id="DejaVuSans-57" d="M 1172 4494 
L 1172 3500 
L 2356 3500 
L 2356 3053 
L 1172 3053 
L 1172 1153 
Q 1172 725 1289 603 
Q 1406 481 1766 481 
L 2356 481 
L 2356 0 
L 1766 0 
Q 1100 0 847 248 
Q 594 497 594 1153 
L 594 3053 
L 172 3053 
L 172 3500 
L 594 3500 
L 594 4494 
L 1172 4494 
z
" transform="scale(0.015625)"/>
       <path id="DejaVuSans-c" d="M 513 4856 
L 1013 4856 
Q 1481 4119 1714 3412 
Q 1947 2706 1947 2009 
Q 1947 1309 1714 600 
Q 1481 -109 1013 -844 
L 513 -844 
Q 928 -128 1133 580 
Q 1338 1288 1338 2009 
Q 1338 2731 1133 3434 
Q 928 4138 513 4856 
z
" transform="scale(0.015625)"/>
      </defs>
      <use xlink:href="#DejaVuSans-36"/>
      <use xlink:href="#DejaVuSans-44" transform="translate(63.484375 0)"/>
      <use xlink:href="#DejaVuSans-50" transform="translate(124.765625 0)"/>
      <use xlink:href="#DejaVuSans-53" transform="translate(222.171875 0)"/>
      <use xlink:href="#DejaVuSans-4f" transform="translate(285.65625 0)"/>
      <use xlink:href="#DejaVuSans-48" transform="translate(313.4375 0)"/>
      <use xlink:href="#DejaVuSans-47" transform="translate(374.96875 0)"/>
      <use xlink:href="#DejaVuSans-3" transform="translate(438.453125 0)"/>
      <use xlink:href="#DejaVuSans-33" transform="translate(470.234375 0)"/>
      <use xlink:href="#DejaVuSans-35" transform="translate(530.53125 0)"/>
      <use xlink:href="#DejaVuSans-56" transform="translate(600.015625 0)"/>
      <use xlink:href="#DejaVuSans-3" transform="translate(652.109375 0)"/>
      <use xlink:href="#DejaVuSans-b" transform="translate(683.890625 0)"/>
      <use xlink:href="#DejaVuSans-46" transform="translate(722.90625 0)"/>
      <use xlink:href="#DejaVuSans-52" transform="translate(777.890625 0)"/>
      <use xlink:href="#DejaVuSans-58" transform="translate(839.078125 0)"/>
      <use xlink:href="#DejaVuSans-51" transform="translate(902.453125 0)"/>
      <use xlink:href="#DejaVuSans-57" transform="translate(965.828125 0)"/>
      <use xlink:href="#DejaVuSans-c" transform="translate(1005.03125 0)"/>
     </g>
    </g>
   </g>
   <g id="patch_3">
    <path d="M 111.036832 340.2 
L 152.36198 340.2 
L 152.36198 98.28 
L 111.036832 98.28 
z
" clip-path="url(#pfc8a4fcf99)" style="fill: #2375a8"/>
   </g>
   <g id="patch_4">
    <path d="M 177.690297 340.2 
L 219.015446 340.2 
L 219.015446 98.28 
L 177.690297 98.28 
z
" clip-path="url(#pfc8a4fcf99)" style="fill: #2375a8"/>
   </g>
   <g id="patch_5">
    <path d="M 244.343762 340.2 
L 285.668911 340.2 
L 285.668911 98.28 
L 244.343762 98.28 
z
" clip-path="url(#pfc8a4fcf99)" style="fill: #2375a8"/>
   </g>
   <g id="patch_6">
    <path d="M 310.997228 340.2 
L 352.322376 340.2 
L 352.322376 98.28 
L 310.997228 98.28 
z
" clip-path="url(#pfc8a4fcf99)" style="fill: #2375a8"/>
   </g>
   <g id="patch_7">
    <path d="M 377.650693 340.2 
L 418.975842 340.2 
L 418.975842 98.28 
L 377.650693 98.28 
z
" clip-path="url(#pfc8a4fcf99)" style="fill: #2375a8"/>
   </g>
   <g id="patch_8">
    <path d="M 444.304158 340.2 
L 485.629307 340.2 
L 485.629307 98.28 
L 444.304158 98.28 
z
" clip-path="url(#pfc8a4fcf99)" style="fill: #2375a8"/>
   </g>
   <g id="patch_9">
    <path d="M 510.957624 340.2 
L 552.282772 340.2 
L 552.282772 98.28 
L 510.957624 98.28 
z
" clip-path="url(#pfc8a4fcf99)" style="fill: #2375a8"/>
   </g>
   <g id="patch_10">
    <path d="M 577.611089 340.2 
L 618.936238 340.2 
L 618.936238 98.28 
L 577.611089 98.28 
z
" clip-path="url(#pfc8a4fcf99)" style="fill: #2375a8"/>
   </g>
   <g id="patch_11">
    <path d="M 644.264554 340.2 
L 685.589703 340.2 
L 685.589703 98.28 
L 644.264554 98.28 
z
" clip-path="url(#pfc8a4fcf99)" style="fill: #2375a8"/>
   </g>
   <g id="patch_12">
    <path d="M 710.91802 340.2 
L 752.243168 340.2 
L 752.243168 98.28 
L 710.91802 98.28 
z
" clip-path="url(#pfc8a4fcf99)" style="fill: #2375a8"/>
   </g>
   <g id="patch_13">
    <path d="M 95.04 340.2 
L 95.04 49.896 
" style="fill: none; stroke: #b4bec8; stroke-width: 0.8; stroke-linejoin: miter; stroke-linecap: square"/>
   </g>
   <g id="patch_14">
    <path d="M 95.04 340.2 
L 768.24 340.2 
" style="fill: none; stroke: #b4bec8; stroke-width: 0.8; stroke-linejoin: miter; stroke-linecap: square"/>
   </g>
   <g id="text_23">
    <!-- 200 -->
    <g style="fill: #213547" transform="translate(122.155656 90.877656) scale(0.1 -0.1)">
     <use xlink:href="#DejaVuSans-15"/>
     <use xlink:href="#DejaVuSans-13" transform="translate(63.625 0)"/>
     <use xlink:href="#DejaVuSans-13" transform="translate(127.25 0)"/>
    </g>
   </g>
   <g id="text_24">
    <!-- 200 -->
    <g style="fill: #213547" transform="translate(188.809121 90.877656) scale(0.1 -0.1)">
     <use xlink:href="#DejaVuSans-15"/>
     <use xlink:href="#DejaVuSans-13" transform="translate(63.625 0)"/>
     <use xlink:href="#DejaVuSans-13" transform="translate(127.25 0)"/>
    </g>
   </g>
   <g id="text_25">
    <!-- 200 -->
    <g style="fill: #213547" transform="translate(255.462587 90.877656) scale(0.1 -0.1)">
     <use xlink:href="#DejaVuSans-15"/>
     <use xlink:href="#DejaVuSans-13" transform="translate(63.625 0)"/>
     <use xlink:href="#DejaVuSans-13" transform="translate(127.25 0)"/>
    </g>
   </g>
   <g id="text_26">
    <!-- 200 -->
    <g style="fill: #213547" transform="translate(322.116052 90.877656) scale(0.1 -0.1)">
     <use xlink:href="#DejaVuSans-15"/>
     <use xlink:href="#DejaVuSans-13" transform="translate(63.625 0)"/>
     <use xlink:href="#DejaVuSans-13" transform="translate(127.25 0)"/>
    </g>
   </g>
   <g id="text_27">
    <!-- 200 -->
    <g style="fill: #213547" transform="translate(388.769517 90.877656) scale(0.1 -0.1)">
     <use xlink:href="#DejaVuSans-15"/>
     <use xlink:href="#DejaVuSans-13" transform="translate(63.625 0)"/>
     <use xlink:href="#DejaVuSans-13" transform="translate(127.25 0)"/>
    </g>
   </g>
   <g id="text_28">
    <!-- 200 -->
    <g style="fill: #213547" transform="translate(455.422983 90.877656) scale(0.1 -0.1)">
     <use xlink:href="#DejaVuSans-15"/>
     <use xlink:href="#DejaVuSans-13" transform="translate(63.625 0)"/>
     <use xlink:href="#DejaVuSans-13" transform="translate(127.25 0)"/>
    </g>
   </g>
   <g id="text_29">
    <!-- 200 -->
    <g style="fill: #213547" transform="translate(522.076448 90.877656) scale(0.1 -0.1)">
     <use xlink:href="#DejaVuSans-15"/>
     <use xlink:href="#DejaVuSans-13" transform="translate(63.625 0)"/>
     <use xlink:href="#DejaVuSans-13" transform="translate(127.25 0)"/>
    </g>
   </g>
   <g id="text_30">
    <!-- 200 -->
    <g style="fill: #213547" transform="translate(588.729913 90.877656) scale(0.1 -0.1)">
     <use xlink:href="#DejaVuSans-15"/>
     <use xlink:href="#DejaVuSans-13" transform="translate(63.625 0)"/>
     <use xlink:href="#DejaVuSans-13" transform="translate(127.25 0)"/>
    </g>
   </g>
   <g id="text_31">
    <!-- 200 -->
    <g style="fill: #213547" transform="translate(655.383379 90.877656) scale(0.1 -0.1)">
     <use xlink:href="#DejaVuSans-15"/>
     <use xlink:href="#DejaVuSans-13" transform="translate(63.625 0)"/>
     <use xlink:href="#DejaVuSans-13" transform="translate(127.25 0)"/>
    </g>
   </g>
   <g id="text_32">
    <!-- 200 -->
    <g style="fill: #213547" transform="translate(722.036844 90.877656) scale(0.1 -0.1)">
     <use xlink:href="#DejaVuSans-15"/>
     <use xlink:href="#DejaVuSans-13" transform="translate(63.625 0)"/>
     <use xlink:href="#DejaVuSans-13" transform="translate(127.25 0)"/>
    </g>
   </g>
   <g id="text_33">
    <!-- Sampled pull requests -->
    <g style="fill: #213547" transform="translate(343.126094 43.896) scale(0.14 -0.14)">
     <defs>
      <path id="DejaVuSans-Bold-36" d="M 3834 4519 
L 3834 3531 
Q 3450 3703 3084 3790 
Q 2719 3878 2394 3878 
Q 1963 3878 1756 3759 
Q 1550 3641 1550 3391 
Q 1550 3203 1689 3098 
Q 1828 2994 2194 2919 
L 2706 2816 
Q 3484 2659 3812 2340 
Q 4141 2022 4141 1434 
Q 4141 663 3683 286 
Q 3225 -91 2284 -91 
Q 1841 -91 1394 -6 
Q 947 78 500 244 
L 500 1259 
Q 947 1022 1364 901 
Q 1781 781 2169 781 
Q 2563 781 2772 912 
Q 2981 1044 2981 1288 
Q 2981 1506 2839 1625 
Q 2697 1744 2272 1838 
L 1806 1941 
Q 1106 2091 782 2419 
Q 459 2747 459 3303 
Q 459 4000 909 4375 
Q 1359 4750 2203 4750 
Q 2588 4750 2994 4692 
Q 3400 4634 3834 4519 
z
" transform="scale(0.015625)"/>
      <path id="DejaVuSans-Bold-44" d="M 2106 1575 
Q 1756 1575 1579 1456 
Q 1403 1338 1403 1106 
Q 1403 894 1545 773 
Q 1688 653 1941 653 
Q 2256 653 2472 879 
Q 2688 1106 2688 1447 
L 2688 1575 
L 2106 1575 
z
M 3816 1997 
L 3816 0 
L 2688 0 
L 2688 519 
Q 2463 200 2181 54 
Q 1900 -91 1497 -91 
Q 953 -91 614 226 
Q 275 544 275 1050 
Q 275 1666 698 1953 
Q 1122 2241 2028 2241 
L 2688 2241 
L 2688 2328 
Q 2688 2594 2478 2717 
Q 2269 2841 1825 2841 
Q 1466 2841 1156 2769 
Q 847 2697 581 2553 
L 581 3406 
Q 941 3494 1303 3539 
Q 1666 3584 2028 3584 
Q 2975 3584 3395 3211 
Q 3816 2838 3816 1997 
z
" transform="scale(0.015625)"/>
      <path id="DejaVuSans-Bold-50" d="M 3781 2919 
Q 3994 3244 4286 3414 
Q 4578 3584 4928 3584 
Q 5531 3584 5847 3212 
Q 6163 2841 6163 2131 
L 6163 0 
L 5038 0 
L 5038 1825 
Q 5041 1866 5042 1909 
Q 5044 1953 5044 2034 
Q 5044 2406 4934 2573 
Q 4825 2741 4581 2741 
Q 4263 2741 4089 2478 
Q 3916 2216 3909 1719 
L 3909 0 
L 2784 0 
L 2784 1825 
Q 2784 2406 2684 2573 
Q 2584 2741 2328 2741 
Q 2006 2741 1831 2477 
Q 1656 2213 1656 1722 
L 1656 0 
L 531 0 
L 531 3500 
L 1656 3500 
L 1656 2988 
Q 1863 3284 2130 3434 
Q 2397 3584 2719 3584 
Q 3081 3584 3359 3409 
Q 3638 3234 3781 2919 
z
" transform="scale(0.015625)"/>
      <path id="DejaVuSans-Bold-53" d="M 1656 506 
L 1656 -1331 
L 538 -1331 
L 538 3500 
L 1656 3500 
L 1656 2988 
Q 1888 3294 2169 3439 
Q 2450 3584 2816 3584 
Q 3463 3584 3878 3070 
Q 4294 2556 4294 1747 
Q 4294 938 3878 423 
Q 3463 -91 2816 -91 
Q 2450 -91 2169 54 
Q 1888 200 1656 506 
z
M 2400 2772 
Q 2041 2772 1848 2508 
Q 1656 2244 1656 1747 
Q 1656 1250 1848 986 
Q 2041 722 2400 722 
Q 2759 722 2948 984 
Q 3138 1247 3138 1747 
Q 3138 2247 2948 2509 
Q 2759 2772 2400 2772 
z
" transform="scale(0.015625)"/>
      <path id="DejaVuSans-Bold-4f" d="M 538 4863 
L 1656 4863 
L 1656 0 
L 538 0 
L 538 4863 
z
" transform="scale(0.015625)"/>
      <path id="DejaVuSans-Bold-48" d="M 4031 1759 
L 4031 1441 
L 1416 1441 
Q 1456 1047 1700 850 
Q 1944 653 2381 653 
Q 2734 653 3104 758 
Q 3475 863 3866 1075 
L 3866 213 
Q 3469 63 3072 -14 
Q 2675 -91 2278 -91 
Q 1328 -91 801 392 
Q 275 875 275 1747 
Q 275 2603 792 3093 
Q 1309 3584 2216 3584 
Q 3041 3584 3536 3087 
Q 4031 2591 4031 1759 
z
M 2881 2131 
Q 2881 2450 2695 2645 
Q 2509 2841 2209 2841 
Q 1884 2841 1681 2658 
Q 1478 2475 1428 2131 
L 2881 2131 
z
" transform="scale(0.015625)"/>
      <path id="DejaVuSans-Bold-47" d="M 2919 2988 
L 2919 4863 
L 4044 4863 
L 4044 0 
L 2919 0 
L 2919 506 
Q 2688 197 2409 53 
Q 2131 -91 1766 -91 
Q 1119 -91 703 423 
Q 288 938 288 1747 
Q 288 2556 703 3070 
Q 1119 3584 1766 3584 
Q 2128 3584 2408 3439 
Q 2688 3294 2919 2988 
z
M 2181 722 
Q 2541 722 2730 984 
Q 2919 1247 2919 1747 
Q 2919 2247 2730 2509 
Q 2541 2772 2181 2772 
Q 1825 2772 1636 2509 
Q 1447 2247 1447 1747 
Q 1447 1247 1636 984 
Q 1825 722 2181 722 
z
" transform="scale(0.015625)"/>
      <path id="DejaVuSans-Bold-3" transform="scale(0.015625)"/>
      <path id="DejaVuSans-Bold-58" d="M 500 1363 
L 500 3500 
L 1625 3500 
L 1625 3150 
Q 1625 2866 1622 2436 
Q 1619 2006 1619 1863 
Q 1619 1441 1641 1255 
Q 1663 1069 1716 984 
Q 1784 875 1895 815 
Q 2006 756 2150 756 
Q 2500 756 2700 1025 
Q 2900 1294 2900 1772 
L 2900 3500 
L 4019 3500 
L 4019 0 
L 2900 0 
L 2900 506 
Q 2647 200 2364 54 
Q 2081 -91 1741 -91 
Q 1134 -91 817 281 
Q 500 653 500 1363 
z
" transform="scale(0.015625)"/>
      <path id="DejaVuSans-Bold-55" d="M 3138 2547 
Q 2991 2616 2845 2648 
Q 2700 2681 2553 2681 
Q 2122 2681 1889 2404 
Q 1656 2128 1656 1613 
L 1656 0 
L 538 0 
L 538 3500 
L 1656 3500 
L 1656 2925 
Q 1872 3269 2151 3426 
Q 2431 3584 2822 3584 
Q 2878 3584 2943 3579 
Q 3009 3575 3134 3559 
L 3138 2547 
z
" transform="scale(0.015625)"/>
      <path id="DejaVuSans-Bold-54" d="M 2181 2772 
Q 1825 2772 1636 2509 
Q 1447 2247 1447 1747 
Q 1447 1247 1636 984 
Q 1825 722 2181 722 
Q 2541 722 2730 984 
Q 2919 1247 2919 1747 
Q 2919 2247 2730 2509 
Q 2541 2772 2181 2772 
z
M 2919 506 
Q 2688 197 2409 53 
Q 2131 -91 1766 -91 
Q 1119 -91 703 423 
Q 288 938 288 1747 
Q 288 2556 703 3067 
Q 1119 3578 1766 3578 
Q 2131 3578 2409 3434 
Q 2688 3291 2919 2981 
L 2919 3500 
L 4044 3500 
L 4044 -1331 
L 2919 -1331 
L 2919 506 
z
" transform="scale(0.015625)"/>
      <path id="DejaVuSans-Bold-56" d="M 3272 3391 
L 3272 2541 
Q 2913 2691 2578 2766 
Q 2244 2841 1947 2841 
Q 1628 2841 1473 2761 
Q 1319 2681 1319 2516 
Q 1319 2381 1436 2309 
Q 1553 2238 1856 2203 
L 2053 2175 
Q 2913 2066 3209 1816 
Q 3506 1566 3506 1031 
Q 3506 472 3093 190 
Q 2681 -91 1863 -91 
Q 1516 -91 1145 -36 
Q 775 19 384 128 
L 384 978 
Q 719 816 1070 734 
Q 1422 653 1784 653 
Q 2113 653 2278 743 
Q 2444 834 2444 1013 
Q 2444 1163 2330 1236 
Q 2216 1309 1875 1350 
L 1678 1375 
Q 931 1469 631 1722 
Q 331 1975 331 2491 
Q 331 3047 712 3315 
Q 1094 3584 1881 3584 
Q 2191 3584 2531 3537 
Q 2872 3491 3272 3391 
z
" transform="scale(0.015625)"/>
      <path id="DejaVuSans-Bold-57" d="M 1759 4494 
L 1759 3500 
L 2913 3500 
L 2913 2700 
L 1759 2700 
L 1759 1216 
Q 1759 972 1856 886 
Q 1953 800 2241 800 
L 2816 800 
L 2816 0 
L 1856 0 
Q 1194 0 917 276 
Q 641 553 641 1216 
L 641 2700 
L 84 2700 
L 84 3500 
L 641 3500 
L 641 4494 
L 1759 4494 
z
" transform="scale(0.015625)"/>
     </defs>
     <use xlink:href="#DejaVuSans-Bold-36"/>
     <use xlink:href="#DejaVuSans-Bold-44" transform="translate(72.015625 0)"/>
     <use xlink:href="#DejaVuSans-Bold-50" transform="translate(139.5 0)"/>
     <use xlink:href="#DejaVuSans-Bold-53" transform="translate(243.703125 0)"/>
     <use xlink:href="#DejaVuSans-Bold-4f" transform="translate(315.28125 0)"/>
     <use xlink:href="#DejaVuSans-Bold-48" transform="translate(349.5625 0)"/>
     <use xlink:href="#DejaVuSans-Bold-47" transform="translate(417.390625 0)"/>
     <use xlink:href="#DejaVuSans-Bold-3" transform="translate(488.96875 0)"/>
     <use xlink:href="#DejaVuSans-Bold-53" transform="translate(523.78125 0)"/>
     <use xlink:href="#DejaVuSans-Bold-58" transform="translate(595.359375 0)"/>
     <use xlink:href="#DejaVuSans-Bold-4f" transform="translate(666.546875 0)"/>
     <use xlink:href="#DejaVuSans-Bold-4f" transform="translate(700.828125 0)"/>
     <use xlink:href="#DejaVuSans-Bold-3" transform="translate(735.109375 0)"/>
     <use xlink:href="#DejaVuSans-Bold-55" transform="translate(769.921875 0)"/>
     <use xlink:href="#DejaVuSans-Bold-48" transform="translate(819.234375 0)"/>
     <use xlink:href="#DejaVuSans-Bold-54" transform="translate(887.0625 0)"/>
     <use xlink:href="#DejaVuSans-Bold-58" transform="translate(958.640625 0)"/>
     <use xlink:href="#DejaVuSans-Bold-48" transform="translate(1029.828125 0)"/>
     <use xlink:href="#DejaVuSans-Bold-56" transform="translate(1097.65625 0)"/>
     <use xlink:href="#DejaVuSans-Bold-57" transform="translate(1157.171875 0)"/>
     <use xlink:href="#DejaVuSans-Bold-56" transform="translate(1204.96875 0)"/>
    </g>
   </g>
  </g>
  <g id="text_34">
   <!-- microsoft/vscode | 2,000 sampled merged PRs | 2017-01-01 to 2026-09-25 -->
   <g style="fill: #213547" transform="translate(31.68 405.89425) scale(0.08 -0.08)">
    <defs>
     <path id="DejaVuSans-4c" d="M 603 3500 
L 1178 3500 
L 1178 0 
L 603 0 
L 603 3500 
z
M 603 4863 
L 1178 4863 
L 1178 4134 
L 603 4134 
L 603 4863 
z
" transform="scale(0.015625)"/>
     <path id="DejaVuSans-49" d="M 2375 4863 
L 2375 4384 
L 1825 4384 
Q 1516 4384 1395 4259 
Q 1275 4134 1275 3809 
L 1275 3500 
L 2222 3500 
L 2222 3053 
L 1275 3053 
L 1275 0 
L 697 0 
L 697 3053 
L 147 3053 
L 147 3500 
L 697 3500 
L 697 3744 
Q 697 4328 969 4595 
Q 1241 4863 1831 4863 
L 2375 4863 
z
" transform="scale(0.015625)"/>
     <path id="DejaVuSans-12" d="M 1625 4666 
L 2156 4666 
L 531 -594 
L 0 -594 
L 1625 4666 
z
" transform="scale(0.015625)"/>
     <path id="DejaVuSans-59" d="M 191 3500 
L 800 3500 
L 1894 563 
L 2988 3500 
L 3597 3500 
L 2284 0 
L 1503 0 
L 191 3500 
z
" transform="scale(0.015625)"/>
     <path id="DejaVuSans-5f" d="M 1344 4891 
L 1344 -1509 
L 813 -1509 
L 813 4891 
L 1344 4891 
z
" transform="scale(0.015625)"/>
     <path id="DejaVuSans-f" d="M 750 794 
L 1409 794 
L 1409 256 
L 897 -744 
L 494 -744 
L 750 256 
L 750 794 
z
" transform="scale(0.015625)"/>
     <path id="DejaVuSans-10" d="M 313 2009 
L 1997 2009 
L 1997 1497 
L 313 1497 
L 313 2009 
z
" transform="scale(0.015625)"/>
    </defs>
    <use xlink:href="#DejaVuSans-50"/>
    <use xlink:href="#DejaVuSans-4c" transform="translate(97.40625 0)"/>
    <use xlink:href="#DejaVuSans-46" transform="translate(125.1875 0)"/>
    <use xlink:href="#DejaVuSans-55" transform="translate(180.171875 0)"/>
    <use xlink:href="#DejaVuSans-52" transform="translate(219.078125 0)"/>
    <use xlink:href="#DejaVuSans-56" transform="translate(280.265625 0)"/>
    <use xlink:href="#DejaVuSans-52" transform="translate(332.359375 0)"/>
    <use xlink:href="#DejaVuSans-49" transform="translate(393.546875 0)"/>
    <use xlink:href="#DejaVuSans-57" transform="translate(427 0)"/>
    <use xlink:href="#DejaVuSans-12" transform="translate(466.203125 0)"/>
    <use xlink:href="#DejaVuSans-59" transform="translate(499.890625 0)"/>
    <use xlink:href="#DejaVuSans-56" transform="translate(559.078125 0)"/>
    <use xlink:href="#DejaVuSans-46" transform="translate(611.171875 0)"/>
    <use xlink:href="#DejaVuSans-52" transform="translate(666.15625 0)"/>
    <use xlink:href="#DejaVuSans-47" transform="translate(727.34375 0)"/>
    <use xlink:href="#DejaVuSans-48" transform="translate(790.828125 0)"/>
    <use xlink:href="#DejaVuSans-3" transform="translate(852.359375 0)"/>
    <use xlink:href="#DejaVuSans-5f" transform="translate(884.140625 0)"/>
    <use xlink:href="#DejaVuSans-3" transform="translate(917.828125 0)"/>
    <use xlink:href="#DejaVuSans-15" transform="translate(949.609375 0)"/>
    <use xlink:href="#DejaVuSans-f" transform="translate(1013.234375 0)"/>
    <use xlink:href="#DejaVuSans-13" transform="translate(1045.015625 0)"/>
    <use xlink:href="#DejaVuSans-13" transform="translate(1108.640625 0)"/>
    <use xlink:href="#DejaVuSans-13" transform="translate(1172.265625 0)"/>
    <use xlink:href="#DejaVuSans-3" transform="translate(1235.890625 0)"/>
    <use xlink:href="#DejaVuSans-56" transform="translate(1267.671875 0)"/>
    <use xlink:href="#DejaVuSans-44" transform="translate(1319.765625 0)"/>
    <use xlink:href="#DejaVuSans-50" transform="translate(1381.046875 0)"/>
    <use xlink:href="#DejaVuSans-53" transform="translate(1478.453125 0)"/>
    <use xlink:href="#DejaVuSans-4f" transform="translate(1541.9375 0)"/>
    <use xlink:href="#DejaVuSans-48" transform="translate(1569.71875 0)"/>
    <use xlink:href="#DejaVuSans-47" transform="translate(1631.25 0)"/>
    <use xlink:href="#DejaVuSans-3" transform="translate(1694.734375 0)"/>
    <use xlink:href="#DejaVuSans-50" transform="translate(1726.515625 0)"/>
    <use xlink:href="#DejaVuSans-48" transform="translate(1823.921875 0)"/>
    <use xlink:href="#DejaVuSans-55" transform="translate(1885.453125 0)"/>
    <use xlink:href="#DejaVuSans-4a" transform="translate(1924.8125 0)"/>
    <use xlink:href="#DejaVuSans-48" transform="translate(1988.296875 0)"/>
    <use xlink:href="#DejaVuSans-47" transform="translate(2049.828125 0)"/>
    <use xlink:href="#DejaVuSans-3" transform="translate(2113.3125 0)"/>
    <use xlink:href="#DejaVuSans-33" transform="translate(2145.09375 0)"/>
    <use xlink:href="#DejaVuSans-35" transform="translate(2205.390625 0)"/>
    <use xlink:href="#DejaVuSans-56" transform="translate(2274.875 0)"/>
    <use xlink:href="#DejaVuSans-3" transform="translate(2326.96875 0)"/>
    <use xlink:href="#DejaVuSans-5f" transform="translate(2358.75 0)"/>
    <use xlink:href="#DejaVuSans-3" transform="translate(2392.4375 0)"/>
    <use xlink:href="#DejaVuSans-15" transform="translate(2424.21875 0)"/>
    <use xlink:href="#DejaVuSans-13" transform="translate(2487.84375 0)"/>
    <use xlink:href="#DejaVuSans-14" transform="translate(2551.46875 0)"/>
    <use xlink:href="#DejaVuSans-1a" transform="translate(2615.09375 0)"/>
    <use xlink:href="#DejaVuSans-10" transform="translate(2678.71875 0)"/>
    <use xlink:href="#DejaVuSans-13" transform="translate(2714.796875 0)"/>
    <use xlink:href="#DejaVuSans-14" transform="translate(2778.421875 0)"/>
    <use xlink:href="#DejaVuSans-10" transform="translate(2842.046875 0)"/>
    <use xlink:href="#DejaVuSans-13" transform="translate(2878.125 0)"/>
    <use xlink:href="#DejaVuSans-14" transform="translate(2941.75 0)"/>
    <use xlink:href="#DejaVuSans-3" transform="translate(3005.375 0)"/>
    <use xlink:href="#DejaVuSans-57" transform="translate(3037.15625 0)"/>
    <use xlink:href="#DejaVuSans-52" transform="translate(3076.359375 0)"/>
    <use xlink:href="#DejaVuSans-3" transform="translate(3137.546875 0)"/>
    <use xlink:href="#DejaVuSans-15" transform="translate(3169.328125 0)"/>
    <use xlink:href="#DejaVuSans-13" transform="translate(3232.953125 0)"/>
    <use xlink:href="#DejaVuSans-15" transform="translate(3296.578125 0)"/>
    <use xlink:href="#DejaVuSans-19" transform="translate(3360.203125 0)"/>
    <use xlink:href="#DejaVuSans-10" transform="translate(3423.828125 0)"/>
    <use xlink:href="#DejaVuSans-13" transform="translate(3459.90625 0)"/>
    <use xlink:href="#DejaVuSans-1c" transform="translate(3523.53125 0)"/>
    <use xlink:href="#DejaVuSans-10" transform="translate(3587.15625 0)"/>
    <use xlink:href="#DejaVuSans-15" transform="translate(3623.234375 0)"/>
    <use xlink:href="#DejaVuSans-18" transform="translate(3686.859375 0)"/>
   </g>
   <!-- Random sample: up to 200 PRs/year; seed 42. Human and bot authors included. -->
   <g style="fill: #213547" transform="translate(31.68 419.588) scale(0.08 -0.08)">
    <defs>
     <path id="DejaVuSans-1d" d="M 750 794 
L 1409 794 
L 1409 0 
L 750 0 
L 750 794 
z
M 750 3309 
L 1409 3309 
L 1409 2516 
L 750 2516 
L 750 3309 
z
" transform="scale(0.015625)"/>
     <path id="DejaVuSans-1e" d="M 750 3309 
L 1409 3309 
L 1409 2516 
L 750 2516 
L 750 3309 
z
M 750 794 
L 1409 794 
L 1409 256 
L 897 -744 
L 494 -744 
L 750 256 
L 750 794 
z
" transform="scale(0.015625)"/>
     <path id="DejaVuSans-11" d="M 684 794 
L 1344 794 
L 1344 0 
L 684 0 
L 684 794 
z
" transform="scale(0.015625)"/>
     <path id="DejaVuSans-2b" d="M 628 4666 
L 1259 4666 
L 1259 2753 
L 3553 2753 
L 3553 4666 
L 4184 4666 
L 4184 0 
L 3553 0 
L 3553 2222 
L 1259 2222 
L 1259 0 
L 628 0 
L 628 4666 
z
" transform="scale(0.015625)"/>
     <path id="DejaVuSans-45" d="M 3116 1747 
Q 3116 2381 2855 2742 
Q 2594 3103 2138 3103 
Q 1681 3103 1420 2742 
Q 1159 2381 1159 1747 
Q 1159 1113 1420 752 
Q 1681 391 2138 391 
Q 2594 391 2855 752 
Q 3116 1113 3116 1747 
z
M 1159 2969 
Q 1341 3281 1617 3432 
Q 1894 3584 2278 3584 
Q 2916 3584 3314 3078 
Q 3713 2572 3713 1747 
Q 3713 922 3314 415 
Q 2916 -91 2278 -91 
Q 1894 -91 1617 61 
Q 1341 213 1159 525 
L 1159 0 
L 581 0 
L 581 4863 
L 1159 4863 
L 1159 2969 
z
" transform="scale(0.015625)"/>
     <path id="DejaVuSans-4b" d="M 3513 2113 
L 3513 0 
L 2938 0 
L 2938 2094 
Q 2938 2591 2744 2837 
Q 2550 3084 2163 3084 
Q 1697 3084 1428 2787 
Q 1159 2491 1159 1978 
L 1159 0 
L 581 0 
L 581 4863 
L 1159 4863 
L 1159 2956 
Q 1366 3272 1645 3428 
Q 1925 3584 2291 3584 
Q 2894 3584 3203 3211 
Q 3513 2838 3513 2113 
z
" transform="scale(0.015625)"/>
    </defs>
    <use xlink:href="#DejaVuSans-35"/>
    <use xlink:href="#DejaVuSans-44" transform="translate(67.28125 0)"/>
    <use xlink:href="#DejaVuSans-51" transform="translate(128.5625 0)"/>
    <use xlink:href="#DejaVuSans-47" transform="translate(191.9375 0)"/>
    <use xlink:href="#DejaVuSans-52" transform="translate(255.421875 0)"/>
    <use xlink:href="#DejaVuSans-50" transform="translate(316.609375 0)"/>
    <use xlink:href="#DejaVuSans-3" transform="translate(414.015625 0)"/>
    <use xlink:href="#DejaVuSans-56" transform="translate(445.796875 0)"/>
    <use xlink:href="#DejaVuSans-44" transform="translate(497.890625 0)"/>
    <use xlink:href="#DejaVuSans-50" transform="translate(559.171875 0)"/>
    <use xlink:href="#DejaVuSans-53" transform="translate(656.578125 0)"/>
    <use xlink:href="#DejaVuSans-4f" transform="translate(720.0625 0)"/>
    <use xlink:href="#DejaVuSans-48" transform="translate(747.84375 0)"/>
    <use xlink:href="#DejaVuSans-1d" transform="translate(809.375 0)"/>
    <use xlink:href="#DejaVuSans-3" transform="translate(843.0625 0)"/>
    <use xlink:href="#DejaVuSans-58" transform="translate(874.84375 0)"/>
    <use xlink:href="#DejaVuSans-53" transform="translate(938.21875 0)"/>
    <use xlink:href="#DejaVuSans-3" transform="translate(1001.703125 0)"/>
    <use xlink:href="#DejaVuSans-57" transform="translate(1033.484375 0)"/>
    <use xlink:href="#DejaVuSans-52" transform="translate(1072.6875 0)"/>
    <use xlink:href="#DejaVuSans-3" transform="translate(1133.875 0)"/>
    <use xlink:href="#DejaVuSans-15" transform="translate(1165.65625 0)"/>
    <use xlink:href="#DejaVuSans-13" transform="translate(1229.28125 0)"/>
    <use xlink:href="#DejaVuSans-13" transform="translate(1292.90625 0)"/>
    <use xlink:href="#DejaVuSans-3" transform="translate(1356.53125 0)"/>
    <use xlink:href="#DejaVuSans-33" transform="translate(1388.3125 0)"/>
    <use xlink:href="#DejaVuSans-35" transform="translate(1448.609375 0)"/>
    <use xlink:href="#DejaVuSans-56" transform="translate(1518.09375 0)"/>
    <use xlink:href="#DejaVuSans-12" transform="translate(1570.1875 0)"/>
    <use xlink:href="#DejaVuSans-5c" transform="translate(1603.875 0)"/>
    <use xlink:href="#DejaVuSans-48" transform="translate(1663.0625 0)"/>
    <use xlink:href="#DejaVuSans-44" transform="translate(1724.59375 0)"/>
    <use xlink:href="#DejaVuSans-55" transform="translate(1785.875 0)"/>
    <use xlink:href="#DejaVuSans-1e" transform="translate(1826.984375 0)"/>
    <use xlink:href="#DejaVuSans-3" transform="translate(1860.671875 0)"/>
    <use xlink:href="#DejaVuSans-56" transform="translate(1892.453125 0)"/>
    <use xlink:href="#DejaVuSans-48" transform="translate(1944.546875 0)"/>
    <use xlink:href="#DejaVuSans-48" transform="translate(2006.078125 0)"/>
    <use xlink:href="#DejaVuSans-47" transform="translate(2067.609375 0)"/>
    <use xlink:href="#DejaVuSans-3" transform="translate(2131.09375 0)"/>
    <use xlink:href="#DejaVuSans-17" transform="translate(2162.875 0)"/>
    <use xlink:href="#DejaVuSans-15" transform="translate(2226.5 0)"/>
    <use xlink:href="#DejaVuSans-11" transform="translate(2290.125 0)"/>
    <use xlink:href="#DejaVuSans-3" transform="translate(2321.90625 0)"/>
    <use xlink:href="#DejaVuSans-2b" transform="translate(2353.6875 0)"/>
    <use xlink:href="#DejaVuSans-58" transform="translate(2428.890625 0)"/>
    <use xlink:href="#DejaVuSans-50" transform="translate(2492.265625 0)"/>
    <use xlink:href="#DejaVuSans-44" transform="translate(2589.671875 0)"/>
    <use xlink:href="#DejaVuSans-51" transform="translate(2650.953125 0)"/>
    <use xlink:href="#DejaVuSans-3" transform="translate(2714.328125 0)"/>
    <use xlink:href="#DejaVuSans-44" transform="translate(2746.109375 0)"/>
    <use xlink:href="#DejaVuSans-51" transform="translate(2807.390625 0)"/>
    <use xlink:href="#DejaVuSans-47" transform="translate(2870.765625 0)"/>
    <use xlink:href="#DejaVuSans-3" transform="translate(2934.25 0)"/>
    <use xlink:href="#DejaVuSans-45" transform="translate(2966.03125 0)"/>
    <use xlink:href="#DejaVuSans-52" transform="translate(3029.515625 0)"/>
    <use xlink:href="#DejaVuSans-57" transform="translate(3090.703125 0)"/>
    <use xlink:href="#DejaVuSans-3" transform="translate(3129.90625 0)"/>
    <use xlink:href="#DejaVuSans-44" transform="translate(3161.6875 0)"/>
    <use xlink:href="#DejaVuSans-58" transform="translate(3222.96875 0)"/>
    <use xlink:href="#DejaVuSans-57" transform="translate(3286.34375 0)"/>
    <use xlink:href="#DejaVuSans-4b" transform="translate(3325.546875 0)"/>
    <use xlink:href="#DejaVuSans-52" transform="translate(3388.921875 0)"/>
    <use xlink:href="#DejaVuSans-55" transform="translate(3450.109375 0)"/>
    <use xlink:href="#DejaVuSans-56" transform="translate(3491.21875 0)"/>
    <use xlink:href="#DejaVuSans-3" transform="translate(3543.3125 0)"/>
    <use xlink:href="#DejaVuSans-4c" transform="translate(3575.09375 0)"/>
    <use xlink:href="#DejaVuSans-51" transform="translate(3602.875 0)"/>
    <use xlink:href="#DejaVuSans-46" transform="translate(3666.25 0)"/>
    <use xlink:href="#DejaVuSans-4f" transform="translate(3721.234375 0)"/>
    <use xlink:href="#DejaVuSans-58" transform="translate(3749.015625 0)"/>
    <use xlink:href="#DejaVuSans-47" transform="translate(3812.390625 0)"/>
    <use xlink:href="#DejaVuSans-48" transform="translate(3875.875 0)"/>
    <use xlink:href="#DejaVuSans-47" transform="translate(3937.40625 0)"/>
    <use xlink:href="#DejaVuSans-11" transform="translate(4000.890625 0)"/>
   </g>
   <!-- Reviews counted through merge; change requests are events, not revision rounds. *2026 is a partial year. -->
   <g style="fill: #213547" transform="translate(31.68 433.188) scale(0.08 -0.08)">
    <defs>
     <path id="DejaVuSans-5a" d="M 269 3500 
L 844 3500 
L 1563 769 
L 2278 3500 
L 2956 3500 
L 3675 769 
L 4391 3500 
L 4966 3500 
L 4050 0 
L 3372 0 
L 2619 2869 
L 1863 0 
L 1184 0 
L 269 3500 
z
" transform="scale(0.015625)"/>
     <path id="DejaVuSans-54" d="M 947 1747 
Q 947 1113 1208 752 
Q 1469 391 1925 391 
Q 2381 391 2643 752 
Q 2906 1113 2906 1747 
Q 2906 2381 2643 2742 
Q 2381 3103 1925 3103 
Q 1469 3103 1208 2742 
Q 947 2381 947 1747 
z
M 2906 525 
Q 2725 213 2448 61 
Q 2172 -91 1784 -91 
Q 1150 -91 751 415 
Q 353 922 353 1747 
Q 353 2572 751 3078 
Q 1150 3584 1784 3584 
Q 2172 3584 2448 3432 
Q 2725 3281 2906 2969 
L 2906 3500 
L 3481 3500 
L 3481 -1331 
L 2906 -1331 
L 2906 525 
z
" transform="scale(0.015625)"/>
    </defs>
    <use xlink:href="#DejaVuSans-35"/>
    <use xlink:href="#DejaVuSans-48" transform="translate(65 0)"/>
    <use xlink:href="#DejaVuSans-59" transform="translate(126.53125 0)"/>
    <use xlink:href="#DejaVuSans-4c" transform="translate(185.71875 0)"/>
    <use xlink:href="#DejaVuSans-48" transform="translate(213.5 0)"/>
    <use xlink:href="#DejaVuSans-5a" transform="translate(275.03125 0)"/>
    <use xlink:href="#DejaVuSans-56" transform="translate(356.8125 0)"/>
    <use xlink:href="#DejaVuSans-3" transform="translate(408.90625 0)"/>
    <use xlink:href="#DejaVuSans-46" transform="translate(440.6875 0)"/>
    <use xlink:href="#DejaVuSans-52" transform="translate(495.671875 0)"/>
    <use xlink:href="#DejaVuSans-58" transform="translate(556.859375 0)"/>
    <use xlink:href="#DejaVuSans-51" transform="translate(620.234375 0)"/>
    <use xlink:href="#DejaVuSans-57" transform="translate(683.609375 0)"/>
    <use xlink:href="#DejaVuSans-48" transform="translate(722.8125 0)"/>
    <use xlink:href="#DejaVuSans-47" transform="translate(784.34375 0)"/>
    <use xlink:href="#DejaVuSans-3" transform="translate(847.828125 0)"/>
    <use xlink:href="#DejaVuSans-57" transform="translate(879.609375 0)"/>
    <use xlink:href="#DejaVuSans-4b" transform="translate(918.8125 0)"/>
    <use xlink:href="#DejaVuSans-55" transform="translate(982.1875 0)"/>
    <use xlink:href="#DejaVuSans-52" transform="translate(1021.09375 0)"/>
    <use xlink:href="#DejaVuSans-58" transform="translate(1082.28125 0)"/>
    <use xlink:href="#DejaVuSans-4a" transform="translate(1145.65625 0)"/>
    <use xlink:href="#DejaVuSans-4b" transform="translate(1209.140625 0)"/>
    <use xlink:href="#DejaVuSans-3" transform="translate(1272.515625 0)"/>
    <use xlink:href="#DejaVuSans-50" transform="translate(1304.296875 0)"/>
    <use xlink:href="#DejaVuSans-48" transform="translate(1401.703125 0)"/>
    <use xlink:href="#DejaVuSans-55" transform="translate(1463.234375 0)"/>
    <use xlink:href="#DejaVuSans-4a" transform="translate(1502.59375 0)"/>
    <use xlink:href="#DejaVuSans-48" transform="translate(1566.078125 0)"/>
    <use xlink:href="#DejaVuSans-1e" transform="translate(1627.609375 0)"/>
    <use xlink:href="#DejaVuSans-3" transform="translate(1661.296875 0)"/>
    <use xlink:href="#DejaVuSans-46" transform="translate(1693.078125 0)"/>
    <use xlink:href="#DejaVuSans-4b" transform="translate(1748.0625 0)"/>
    <use xlink:href="#DejaVuSans-44" transform="translate(1811.4375 0)"/>
    <use xlink:href="#DejaVuSans-51" transform="translate(1872.71875 0)"/>
    <use xlink:href="#DejaVuSans-4a" transform="translate(1936.09375 0)"/>
    <use xlink:href="#DejaVuSans-48" transform="translate(1999.578125 0)"/>
    <use xlink:href="#DejaVuSans-3" transform="translate(2061.109375 0)"/>
    <use xlink:href="#DejaVuSans-55" transform="translate(2092.890625 0)"/>
    <use xlink:href="#DejaVuSans-48" transform="translate(2131.796875 0)"/>
    <use xlink:href="#DejaVuSans-54" transform="translate(2193.328125 0)"/>
    <use xlink:href="#DejaVuSans-58" transform="translate(2256.8125 0)"/>
    <use xlink:href="#DejaVuSans-48" transform="translate(2320.1875 0)"/>
    <use xlink:href="#DejaVuSans-56" transform="translate(2381.71875 0)"/>
    <use xlink:href="#DejaVuSans-57" transform="translate(2433.8125 0)"/>
    <use xlink:href="#DejaVuSans-56" transform="translate(2473.015625 0)"/>
    <use xlink:href="#DejaVuSans-3" transform="translate(2525.109375 0)"/>
    <use xlink:href="#DejaVuSans-44" transform="translate(2556.890625 0)"/>
    <use xlink:href="#DejaVuSans-55" transform="translate(2618.171875 0)"/>
    <use xlink:href="#DejaVuSans-48" transform="translate(2657.078125 0)"/>
    <use xlink:href="#DejaVuSans-3" transform="translate(2718.609375 0)"/>
    <use xlink:href="#DejaVuSans-48" transform="translate(2750.390625 0)"/>
    <use xlink:href="#DejaVuSans-59" transform="translate(2811.921875 0)"/>
    <use xlink:href="#DejaVuSans-48" transform="translate(2871.109375 0)"/>
    <use xlink:href="#DejaVuSans-51" transform="translate(2932.640625 0)"/>
    <use xlink:href="#DejaVuSans-57" transform="translate(2996.015625 0)"/>
    <use xlink:href="#DejaVuSans-56" transform="translate(3035.21875 0)"/>
    <use xlink:href="#DejaVuSans-f" transform="translate(3087.3125 0)"/>
    <use xlink:href="#DejaVuSans-3" transform="translate(3119.09375 0)"/>
    <use xlink:href="#DejaVuSans-51" transform="translate(3150.875 0)"/>
    <use xlink:href="#DejaVuSans-52" transform="translate(3214.25 0)"/>
    <use xlink:href="#DejaVuSans-57" transform="translate(3275.4375 0)"/>
    <use xlink:href="#DejaVuSans-3" transform="translate(3314.640625 0)"/>
    <use xlink:href="#DejaVuSans-55" transform="translate(3346.421875 0)"/>
    <use xlink:href="#DejaVuSans-48" transform="translate(3385.328125 0)"/>
    <use xlink:href="#DejaVuSans-59" transform="translate(3446.859375 0)"/>
    <use xlink:href="#DejaVuSans-4c" transform="translate(3506.046875 0)"/>
    <use xlink:href="#DejaVuSans-56" transform="translate(3533.828125 0)"/>
    <use xlink:href="#DejaVuSans-4c" transform="translate(3585.921875 0)"/>
    <use xlink:href="#DejaVuSans-52" transform="translate(3613.703125 0)"/>
    <use xlink:href="#DejaVuSans-51" transform="translate(3674.890625 0)"/>
    <use xlink:href="#DejaVuSans-3" transform="translate(3738.265625 0)"/>
    <use xlink:href="#DejaVuSans-55" transform="translate(3770.046875 0)"/>
    <use xlink:href="#DejaVuSans-52" transform="translate(3808.953125 0)"/>
    <use xlink:href="#DejaVuSans-58" transform="translate(3870.140625 0)"/>
    <use xlink:href="#DejaVuSans-51" transform="translate(3933.515625 0)"/>
    <use xlink:href="#DejaVuSans-47" transform="translate(3996.890625 0)"/>
    <use xlink:href="#DejaVuSans-56" transform="translate(4060.375 0)"/>
    <use xlink:href="#DejaVuSans-11" transform="translate(4112.46875 0)"/>
    <use xlink:href="#DejaVuSans-3" transform="translate(4144.25 0)"/>
    <use xlink:href="#DejaVuSans-d" transform="translate(4176.03125 0)"/>
    <use xlink:href="#DejaVuSans-15" transform="translate(4226.03125 0)"/>
    <use xlink:href="#DejaVuSans-13" transform="translate(4289.65625 0)"/>
    <use xlink:href="#DejaVuSans-15" transform="translate(4353.28125 0)"/>
    <use xlink:href="#DejaVuSans-19" transform="translate(4416.90625 0)"/>
    <use xlink:href="#DejaVuSans-3" transform="translate(4480.53125 0)"/>
    <use xlink:href="#DejaVuSans-4c" transform="translate(4512.3125 0)"/>
    <use xlink:href="#DejaVuSans-56" transform="translate(4540.09375 0)"/>
    <use xlink:href="#DejaVuSans-3" transform="translate(4592.1875 0)"/>
    <use xlink:href="#DejaVuSans-44" transform="translate(4623.96875 0)"/>
    <use xlink:href="#DejaVuSans-3" transform="translate(4685.25 0)"/>
    <use xlink:href="#DejaVuSans-53" transform="translate(4717.03125 0)"/>
    <use xlink:href="#DejaVuSans-44" transform="translate(4780.515625 0)"/>
    <use xlink:href="#DejaVuSans-55" transform="translate(4841.796875 0)"/>
    <use xlink:href="#DejaVuSans-57" transform="translate(4882.90625 0)"/>
    <use xlink:href="#DejaVuSans-4c" transform="translate(4922.109375 0)"/>
    <use xlink:href="#DejaVuSans-44" transform="translate(4949.890625 0)"/>
    <use xlink:href="#DejaVuSans-4f" transform="translate(5011.171875 0)"/>
    <use xlink:href="#DejaVuSans-3" transform="translate(5038.953125 0)"/>
    <use xlink:href="#DejaVuSans-5c" transform="translate(5070.734375 0)"/>
    <use xlink:href="#DejaVuSans-48" transform="translate(5129.921875 0)"/>
    <use xlink:href="#DejaVuSans-44" transform="translate(5191.453125 0)"/>
    <use xlink:href="#DejaVuSans-55" transform="translate(5252.734375 0)"/>
    <use xlink:href="#DejaVuSans-11" transform="translate(5284.671875 0)"/>
   </g>
  </g>
 </g>
 <defs>
  <clipPath id="pfc8a4fcf99">
   <rect x="95.04" y="49.896" width="673.2" height="290.304"/>
  </clipPath>
 </defs>
</svg>
